<svg width="250" height="250" viewBox="0 0 250 250" fill="none" xmlns="http://www.w3.org/2000/svg">
<path d="M129.155 232.7C128.259 231.666 127.044 230.936 125.72 230.591C84.0061 219.724 70.6378 194.212 68.8885 169.721C68.8886 151.943 81.1662 117.61 113.611 116.943H155.833L134.563 135.85C129.827 140.06 129.611 147.388 134.092 151.869C138.309 156.086 145.116 156.18 149.448 152.082L189.4 114.287C193.869 110.06 194.052 103.006 189.809 98.5517L149.113 55.831C144.999 51.5118 138.164 51.3412 133.839 55.4496C129.445 59.6234 129.339 66.5931 133.605 70.898L155.833 93.3321H113.611C91.1108 93.3321 46.333 115.332 47.2219 167.777C46.3886 180.462 51.1108 210.888 76.6663 231.11L90.6695 241.441C92.58 242.85 94.8918 243.611 97.266 243.611H124.173C129.822 243.611 132.855 236.969 129.155 232.7Z" fill="white" stroke="#6C47FF" stroke-width="0.555556"/>
<rect x="10.8333" y="10.8333" width="228.333" height="228.333" rx="39.1667" stroke="#6C47FF" stroke-width="21.6667"/>
</svg>
