<svg width="5047" height="208" viewBox="0 0 5047 208" fill="none" xmlns="http://www.w3.org/2000/svg">
<path fill-rule="evenodd" clip-rule="evenodd" d="M441.004 0C487.538 0 515.005 40.3651 515.005 104.278C515.005 167.631 487.538 207.996 441.004 207.996C394.47 207.996 367 167.631 367 104.278C367 40.3651 394.47 0 441.004 0ZM441.004 26.3478C412.129 26.3478 395.868 55.7846 395.868 104.278C395.868 152.214 412.129 181.649 441.004 181.649C469.876 181.649 486.138 152.214 486.138 104.278C486.138 55.7846 469.876 26.3478 441.004 26.3478Z" fill="white"/>
<path fill-rule="evenodd" clip-rule="evenodd" d="M1449.51 0C1496.04 0 1523.51 40.3674 1523.51 104.278C1523.51 167.631 1496.04 207.996 1449.51 207.996C1402.97 207.996 1375.5 167.631 1375.5 104.278C1375.5 40.3651 1402.97 0 1449.51 0ZM1449.51 26.3478C1420.63 26.3478 1404.37 55.7846 1404.37 104.278C1404.37 152.214 1420.63 181.649 1449.51 181.649C1478.38 181.649 1494.64 152.214 1494.64 104.278C1494.64 55.7846 1478.38 26.3501 1449.51 26.3478Z" fill="white"/>
<path d="M1577.79 134.556C1577.79 164.55 1590.96 181.65 1617.59 181.65C1644.22 181.65 1657.4 164.55 1657.4 134.556V4.20996H1684.87V133.716C1684.87 179.408 1660.2 207.997 1617.59 207.997C1574.98 207.997 1550.32 179.408 1550.32 133.716V4.20996H1577.79V134.556Z" fill="white"/>
<path d="M1957.69 0C1993.28 0 2018.52 24.6702 2027.78 64.4754L1998.62 66.4398C1991.89 40.3697 1977.31 26.3478 1957.41 26.3478C1926.01 26.3501 1908.36 54.1024 1908.36 104.278C1908.36 154.174 1926.01 181.646 1957.41 181.649C1979.28 181.649 1994.41 166.229 2000.29 137.635L2029.16 139.319C2021.32 181.649 1995.52 207.996 1957.69 207.996C1908.06 207.994 1879.76 167.911 1879.76 104.278C1879.76 40.0874 1908.06 0.00231385 1957.69 0Z" fill="white"/>
<path fill-rule="evenodd" clip-rule="evenodd" d="M2626.09 0C2672.65 0 2700.11 40.3674 2700.11 104.278C2700.11 167.631 2672.65 207.996 2626.09 207.996C2579.56 207.996 2552.1 167.631 2552.1 104.278C2552.1 40.3651 2579.56 0 2626.09 0ZM2626.09 26.3478C2597.24 26.3478 2580.97 55.7846 2580.97 104.278C2580.97 152.214 2597.24 181.649 2626.09 181.649C2654.97 181.649 2671.24 152.214 2671.24 104.278C2671.24 55.7846 2654.97 26.3501 2626.09 26.3478Z" fill="white"/>
<path fill-rule="evenodd" clip-rule="evenodd" d="M4306.97 0C4353.5 0 4380.96 40.3674 4380.96 104.278C4380.96 167.631 4353.5 207.996 4306.97 207.996C4260.41 207.996 4232.95 167.631 4232.95 104.278C4232.95 40.3651 4260.41 0 4306.97 0ZM4306.97 26.3478C4278.09 26.3478 4261.82 55.7846 4261.82 104.278C4261.82 152.214 4278.09 181.649 4306.97 181.649C4335.82 181.649 4352.09 152.214 4352.09 104.278C4352.09 55.7846 4335.82 26.3501 4306.97 26.3478Z" fill="white"/>
<path d="M4476.73 0C4511.2 0 4538.95 25.5102 4547.93 63.9131L4519.05 65.8776C4513.17 42.0519 4496.91 26.3501 4477.01 26.3478C4446.16 26.3478 4429.34 54.6623 4429.34 104.278C4429.34 153.616 4446.16 181.649 4477.01 181.649C4501.95 181.646 4519.6 158.383 4521.57 127.829H4476.43V102.034H4548.48V203.515H4529.14L4525.78 177.164C4517.36 196.786 4500.82 207.996 4476.73 207.996C4430.17 207.996 4400.46 167.631 4400.46 104.278C4400.46 40.3651 4430.17 0 4476.73 0Z" fill="white"/>
<path d="M1277.5 0C1317.59 0.00231385 1345.62 26.6324 1349.82 63.9131L1321.51 65.5976C1318.14 41.7719 1300.21 26.3501 1276.94 26.3478C1257.88 26.3478 1242.18 37.843 1242.46 56.0645C1242.74 78.4903 1267.13 84.9367 1290.96 91.1055C1324.88 100.636 1353.47 119.42 1353.47 149.974C1353.47 187.255 1320.67 206.874 1286.47 206.874C1244.7 206.874 1213.3 180.246 1209.94 139.319L1238.25 137.635C1243.3 163.425 1260.68 180.526 1288.15 180.526C1309.74 180.526 1325.16 170.993 1325.16 152.212C1325.16 133.153 1308.89 121.66 1274.14 112.409C1242.74 104.281 1214.15 87.7411 1214.15 55.7845C1214.15 21.5836 1241.06 0 1277.5 0Z" fill="white"/>
<path d="M2454.11 0C2494.19 0.00231385 2522.21 26.6324 2526.42 63.9131L2498.12 65.5976C2494.74 41.7719 2476.81 26.3501 2453.53 26.3478C2434.49 26.3478 2418.78 37.843 2419.06 56.0645C2419.33 78.4903 2443.72 84.9367 2467.55 91.1055C2501.47 100.636 2530.07 119.42 2530.07 149.974C2530.07 187.255 2497.26 206.874 2463.06 206.874C2421.3 206.874 2389.9 180.246 2386.55 139.319L2414.84 137.635C2419.89 163.425 2437.29 180.526 2464.75 180.526C2486.34 180.526 2501.75 170.993 2501.75 152.212C2501.75 133.153 2485.49 121.66 2450.73 112.409C2419.33 104.281 2390.76 87.7411 2390.76 55.7845C2390.76 21.5836 2417.67 0 2454.11 0Z" fill="white"/>
<path d="M238.767 206.263H0L119.384 0.0556641L238.767 206.263Z" fill="white"/>
<path fill-rule="evenodd" clip-rule="evenodd" d="M611.055 4.49219C655.064 4.4945 681.696 27.7579 681.696 65.6009C681.694 104.284 655.062 128.112 611.055 128.112H576.574V203.518H549.104V4.49219H611.055ZM576.574 101.764H610.212C638.522 101.764 652.822 89.4266 652.822 65.6009C652.822 42.6151 638.525 30.8423 610.212 30.8423H576.574V101.764Z" fill="white"/>
<path d="M843.884 30.8423H744.655V90.8265H840.525V116.621H744.655V177.168H846.129V203.518H717.185V4.49219H843.884V30.8423Z" fill="white"/>
<path d="M981.134 164.555V4.49219H1008.61V203.518H969.637L909.37 49.6215V203.518H881.9V4.49219H918.343L981.134 164.555Z" fill="white"/>
<path fill-rule="evenodd" clip-rule="evenodd" d="M1785.11 4.49219C1826.89 4.49219 1853.24 27.7579 1853.24 64.7587C1853.24 87.7444 1838.39 105.684 1821 111.29C1839.77 114.934 1847.92 125.027 1849.86 145.489L1855.49 203.518H1827.72L1822.68 148.296C1821 130.914 1809.78 125.025 1782.59 125.025H1748.67V203.518H1721.2V4.49219H1785.11ZM1748.67 98.9574H1784.83C1810.06 98.9574 1824.36 86.6245 1824.36 65.041C1824.36 43.1751 1810.07 30.8423 1784.83 30.8423H1748.67V98.9574Z" fill="white"/>
<path d="M2188.57 30.8423H2089.33V90.8265H2185.21V116.621H2089.33V177.168H2190.81V203.518H2061.86V4.49219H2188.57V30.8423Z" fill="white"/>
<path d="M2859.52 30.8423H2763.35V93.3532H2854.45V119.141H2763.35V203.518H2735.61V4.49219H2859.52V30.8423Z" fill="white"/>
<path d="M3034.88 30.8423H2976.01V203.518H2948.53V30.8423H2889.66V4.49219H3034.88V30.8423Z" fill="white"/>
<path d="M3098.68 167.917L3118.02 21.3092H3142.69L3162.03 167.917L3178.02 4.49219H3206.04L3185.86 203.518H3146.62L3130.35 68.9606L3114.11 203.518H3074.87L3054.67 4.49219H3082.71L3098.68 167.917Z" fill="white"/>
<path fill-rule="evenodd" clip-rule="evenodd" d="M3376.1 203.518H3347.78L3332.37 150.54H3264.53L3249.09 203.518H3220.8L3281.35 4.49219H3315.55L3376.1 203.518ZM3271.54 126.43H3325.36L3298.45 33.6397L3271.54 126.43Z" fill="white"/>
<path fill-rule="evenodd" clip-rule="evenodd" d="M3465.97 4.49219C3507.74 4.49219 3534.09 27.7579 3534.09 64.7587C3534.09 87.7444 3519.24 105.684 3501.86 111.29C3520.62 114.934 3528.77 125.027 3530.71 145.489L3536.34 203.518H3508.57L3503.52 148.296C3501.86 130.916 3490.64 125.025 3463.45 125.025H3429.53V203.518H3402.04V4.49219H3465.97ZM3429.53 98.9574H3465.69C3490.91 98.9574 3505.21 86.6245 3505.21 65.041C3505.21 43.1751 3490.91 30.8423 3465.69 30.8423H3429.53V98.9574Z" fill="white"/>
<path d="M3701.34 30.8423H3602.1V90.8265H3697.96V116.621H3602.1V177.168H3703.58V203.518H3574.63V4.49219H3701.34V30.8423Z" fill="white"/>
<path fill-rule="evenodd" clip-rule="evenodd" d="M3972.76 4.49219C4016.77 4.4945 4043.4 27.7579 4043.4 65.6009C4043.4 104.284 4016.77 128.112 3972.76 128.112H3938.28V203.518H3910.79V4.49219H3972.76ZM3938.28 101.764H3971.9C4000.22 101.764 4014.52 89.4266 4014.52 65.6009C4014.52 42.6151 4000.22 30.8423 3971.9 30.8423H3938.28V101.764Z" fill="white"/>
<path fill-rule="evenodd" clip-rule="evenodd" d="M4138.31 4.49219C4180.07 4.49219 4206.43 27.7579 4206.43 64.7587C4206.43 87.7444 4191.57 105.684 4174.2 111.29C4192.96 114.934 4201.11 125.027 4203.07 145.489L4208.67 203.518H4180.91L4175.86 148.296C4174.2 130.916 4162.97 125.025 4135.79 125.025H4101.87V203.518H4074.4V4.49219H4138.31ZM4101.87 98.9574H4138.03C4163.25 98.9574 4177.55 86.6245 4177.55 65.041C4177.55 43.1751 4163.25 30.8423 4138.03 30.8423H4101.87V98.9574Z" fill="white"/>
<path fill-rule="evenodd" clip-rule="evenodd" d="M4642.56 4.49219C4684.33 4.49219 4710.68 27.7579 4710.68 64.7587C4710.68 87.7444 4695.83 105.684 4678.45 111.29C4697.22 114.934 4705.36 125.027 4707.33 145.489L4712.93 203.518H4685.16L4680.12 148.296C4678.45 130.916 4667.23 125.025 4640.04 125.025H4606.12V203.518H4578.66V4.49219H4642.56ZM4606.12 98.9574H4642.29C4667.51 98.9574 4681.81 86.6245 4681.81 65.041C4681.81 43.1751 4667.51 30.8423 4642.29 30.8423H4606.12V98.9574Z" fill="white"/>
<path fill-rule="evenodd" clip-rule="evenodd" d="M4888.85 203.518H4860.55L4845.12 150.54H4777.3L4761.86 203.518H4733.56L4794.09 4.49219H4828.32L4888.85 203.518ZM4784.28 126.43H4838.1L4811.19 33.6397L4784.28 126.43Z" fill="white"/>
<path d="M4979.3 141.847L5005.08 4.49219H5046.84V203.518H5019.38V38.6909L4990.22 189.501H4968.08L4939.2 38.6909V203.518H4911.74V4.49219H4953.5L4979.3 141.847Z" fill="white"/>
</svg>
